<svg width="100%" height="100%" viewBox="0 0 257 258" fill="none" xmlns="http://www.w3.org/2000/svg">
<path d="M94.6284 70.8002C108.649 46.5316 123.756 37.6224 129.557 36.2014C135.344 37.6774 150.366 46.7296 164.156 71.1302C177.946 95.5308 169.531 159.428 163.599 188.37L146.217 188.375L128.835 188.37L94.0716 188.37C88.4151 159.373 80.6074 95.0689 94.6284 70.8002Z" fill="#49BDEE" stroke="black" stroke-width="2"/>
<path d="M68 240.87C98.8 231.27 114 203.537 113 188.37H145C144 203.537 159.2 231.27 190 240.87C158 258.37 111.5 264.37 68 240.87Z" fill="#F99622" stroke="black" stroke-width="2"/>
<path d="M182.328 218.966L160.745 188.444L169.621 149.376C171.07 149.383 180.034 152.902 186.921 166.841C191.225 175.552 191.087 204.522 182.328 218.966Z" fill="#E81A1A" stroke="black" stroke-width="2"/>
<path d="M75.5298 218.631L97.1129 188.109L88.2363 149.041C86.7878 149.048 77.8238 152.567 70.9369 166.506C66.6325 175.217 66.7701 204.187 75.5298 218.631Z" fill="#E81A1A" stroke="black" stroke-width="2"/>
<circle cx="129.309" cy="88.3472" r="8.69105" transform="rotate(0.271918 129.309 88.3472)" fill="#C4C4C4" stroke="black"/>
<circle cx="129.186" cy="114.42" r="8.69105" transform="rotate(0.271918 129.186 114.42)" fill="#C4C4C4" stroke="black"/>
<circle cx="129.062" cy="140.493" r="8.69105" transform="rotate(0.271918 129.062 140.493)" fill="#C4C4C4" stroke="black"/>
<circle cx="128.5" cy="128.5" r="126.5" stroke="black" stroke-width="4"/>
</svg>
